<?xml version="1.0" encoding="utf-8"?>
<!-- Generator: Adobe Illustrator 15.0.0, SVG Export Plug-In . SVG Version: 6.00 Build 0)  -->
<!DOCTYPE svg PUBLIC "-//W3C//DTD SVG 1.1//EN" "http://www.w3.org/Graphics/SVG/1.1/DTD/svg11.dtd">
<svg version="1.1" id="Layer_1" xmlns="http://www.w3.org/2000/svg" xmlns:xlink="http://www.w3.org/1999/xlink" x="0px" y="0px"
	 width="108px" height="109px" viewBox="0 0 108 109" enable-background="new 0 0 108 109" xml:space="preserve">
<path d="M53,80.2c-2.693,0-5.21,0.062-7.571,0.167c0.683,2.013,2.142,3.66,4.022,4.595C50.521,85.494,51.723,85.8,53,85.8
	c1.276,0,2.479-0.306,3.549-0.838c1.883-0.935,3.34-2.582,4.022-4.595C58.211,80.262,55.693,80.2,53,80.2z"/>
<path d="M91.758,79.58h0.002c-16.574-21.645-4.094-54.911-31.572-59.614C60.063,16.104,56.891,13,53,13
	c-3.891,0-7.063,3.104-7.188,6.966c-27.478,4.704-14.998,37.97-31.571,59.614h0.002C13.447,80.474,13,81.477,13,82.6
	C13,92.708,48.905,93,53,93s40-0.292,40-10.4C93,81.477,92.553,80.474,91.758,79.58z M53,16.2c1.986,0,3.627,1.46,3.936,3.361
	C55.692,19.458,54.388,19.4,53,19.4s-2.692,0.058-3.935,0.161C49.374,17.66,51.014,16.2,53,16.2z M53,88.2
	c-20.722,0-33.283-3.481-35.09-5.601C19.717,80.481,32.278,77,53,77s33.283,3.481,35.091,5.6C86.283,84.719,73.722,88.2,53,88.2z"/>
</svg>
