<?xml version="1.0" encoding="utf-8"?>
<!-- Generator: Adobe Illustrator 15.0.0, SVG Export Plug-In . SVG Version: 6.00 Build 0)  -->
<!DOCTYPE svg PUBLIC "-//W3C//DTD SVG 1.1//EN" "http://www.w3.org/Graphics/SVG/1.1/DTD/svg11.dtd">
<svg version="1.1" id="Layer_1" xmlns="http://www.w3.org/2000/svg" xmlns:xlink="http://www.w3.org/1999/xlink" x="0px" y="0px"
	 width="108px" height="71px" viewBox="0 0 108 71" enable-background="new 0 0 108 71" xml:space="preserve">
<path d="M84.596,26.157c-2.17,0-4.255,0.364-6.205,1.024c-1.512-3.352-3.279-7.274-5.348-11.878l1.32-3.63L78.9,11.59V7.795H61.822
	c-1.494,2.044,0.605,2.035,8.168,3.712l-1.32,3.713H34.927c2.273-7.939,0.989-7.361,11.22-7.343V4
	C32.063,4.137,34.505,2.55,26.963,26.81c-1.154-0.215-2.343-0.333-3.56-0.333C12.704,26.477,4,35.182,4,45.881
	c0,10.699,8.704,19.403,19.403,19.403c10.7,0,19.404-8.704,19.404-19.403c0-8.006-4.875-14.895-11.812-17.855
	c0.422-1.328,0.876-2.746,1.363-4.261C60.744,53.706,50.095,48.852,65.37,49.459c0.073,0,0.144-0.001,0.216-0.002
	c1.809,8.839,9.646,15.508,19.01,15.508c10.7,0,19.404-8.703,19.404-19.402C104,34.863,95.296,26.157,84.596,26.157z M38.268,45.881
	c0,8.196-6.668,14.864-14.864,14.864c-8.196,0-14.865-6.668-14.865-14.864c0-8.195,6.668-14.864,14.864-14.864
	c0.739,0,1.465,0.056,2.175,0.161c-4.735,14.931-4.167,13.232-4.196,14.491c-0.023,1.062,0.834,1.903,1.912,1.978
	c1.932-0.195,1.497,0.123,6.325-15.26C34.719,34.741,38.268,39.902,38.268,45.881z M57.428,44.956L33.951,19.372l33.02-0.059
	L57.428,44.956z M65.193,45.493l-3.609-0.011l9.367-24.588l3.634,8.052C68.979,32.336,65.219,38.482,65.193,45.493z M76.471,33.124
	l5.604,12.417l-12.343-0.035C69.753,40.33,72.432,35.771,76.471,33.124z M84.596,60.426c-6.854,0-12.638-4.666-14.348-10.988
	c15.471,0.017,16.852,0.81,17.066-1.875c-0.021-0.783-0.312-1.317-7.045-16.221c1.369-0.418,2.82-0.645,4.326-0.645
	c8.194,0,14.862,6.668,14.862,14.866C99.459,53.759,92.792,60.426,84.596,60.426z"/>
</svg>
