<?xml version="1.0" encoding="utf-8"?>
<!-- Generator: Adobe Illustrator 15.0.0, SVG Export Plug-In . SVG Version: 6.00 Build 0)  -->
<!DOCTYPE svg PUBLIC "-//W3C//DTD SVG 1.1//EN" "http://www.w3.org/Graphics/SVG/1.1/DTD/svg11.dtd">
<svg version="1.1" id="Layer_1" xmlns="http://www.w3.org/2000/svg" xmlns:xlink="http://www.w3.org/1999/xlink" x="0px" y="0px"
	 width="109px" height="75px" viewBox="0 0 109 75" enable-background="new 0 0 109 75" xml:space="preserve">
<path d="M96.428,21.571C74.58,31.783,79.895,33.818,63.203,37.859c0.621,1.768,0.639,3.313,1.607,5.895
	c14.625-3.562,10.521-7.906,39.627-20.034C103.189,22.031,99.527,20.775,96.428,21.571z"/>
<path d="M96.081,19.546c2.444-1.143,5.196-2.363,8.356-3.68c-2.646-3.579-9.396-3.813-16.6-2.852
	c-9.355,1.249-19.484,4.516-22.396,5.096c-5.143,1.028-11.403,3.646-15.238,3.085c-1.35-0.197-2.16-1.087-2.717-2.358
	c-1.024-2.34-1.175-5.992-2.144-9.143c-1.496-4.862-6.405-6.312-10.753-5.47c-2.792,0.541-3.927,2.104-8.79,2.571
	C17.469,5.678,4.438,5.488,4.438,5.488c4.769,1.963,16.036,3.599,20.336,4.628c4.301,1.029,5.103,7.855,5.891,14.072
	c0.91,7.183,2.107,15.251,7.25,22.266c5.143,7.013,11.284,7.763,16.032,7.646c2.608-0.063,8.54,3.896,12.155,6.461
	c4.133,2.937,12.25,10.66,13.371,8.604c1.123-2.06-1.775-3.929-10.099-15.146c-4.071-5.49-5.877-8.91-6.808-11.385
	c-0.969-2.576-0.986-4.127-1.607-5.893C78.367,33.355,74.234,29.759,96.081,19.546z"/>
</svg>
