<?xml version="1.0" encoding="utf-8"?>
<!-- Generator: Adobe Illustrator 15.0.0, SVG Export Plug-In . SVG Version: 6.00 Build 0)  -->
<!DOCTYPE svg PUBLIC "-//W3C//DTD SVG 1.1//EN" "http://www.w3.org/Graphics/SVG/1.1/DTD/svg11.dtd">
<svg version="1.1" id="Layer_1" xmlns="http://www.w3.org/2000/svg" xmlns:xlink="http://www.w3.org/1999/xlink" x="0px" y="0px"
	 width="100px" height="83.648px" viewBox="0 0 100 83.648" enable-background="new 0 0 100 83.648" xml:space="preserve">
<path d="M18.126,43.618"/>
<path d="M88.061,29.615L80.438,9.93C79.012,6.161,75.896,2.955,70,2.927H59.249H40.875H29.938C24.068,2.955,20.953,6.161,19.5,9.93
	l-7.625,19.685C8.849,30.006,3.49,33.563,3.5,40.302v25.064h7.439v8.001c-0.019,9.864,13.939,9.747,13.936,0v-8.001H50h25.061v8.001
	c0.031,9.747,13.99,9.864,13.999,0v-8.001h7.44V40.302C96.477,33.563,91.115,30.006,88.061,29.615z M18.126,50.24
	c-3.565,0.011-6.452-2.963-6.437-6.621c-0.015-3.683,2.872-6.659,6.437-6.629c3.554-0.03,6.441,2.946,6.437,6.629
	C24.567,47.277,21.68,50.25,18.126,50.24z M50,29.43h-0.062H19.813l5.75-15.501c0.694-2.201,1.771-3.774,4.314-3.812h20.062H50
	h20.126c2.504,0.038,3.584,1.611,4.311,3.812l5.75,15.501H50z M81.874,50.24c-3.59,0.011-6.479-2.963-6.498-6.621
	c0.02-3.683,2.908-6.659,6.498-6.629c3.529-0.03,6.416,2.946,6.438,6.629C88.29,47.277,85.403,50.25,81.874,50.24z"/>
<path d="M81.874,43.618"/>
</svg>
