<?xml version="1.0" encoding="utf-8"?>
<!-- Generator: Adobe Illustrator 15.0.0, SVG Export Plug-In . SVG Version: 6.00 Build 0)  -->
<!DOCTYPE svg PUBLIC "-//W3C//DTD SVG 1.1//EN" "http://www.w3.org/Graphics/SVG/1.1/DTD/svg11.dtd">
<svg version="1.1" id="Layer_1" xmlns="http://www.w3.org/2000/svg" xmlns:xlink="http://www.w3.org/1999/xlink" x="0px" y="0px"
	 width="100px" height="82.704px" viewBox="0 0 100 82.704" enable-background="new 0 0 100 82.704" xml:space="preserve">
<path d="M20.4,78.877h-6.732C9.006,78.87,4.504,75.454,4.5,69.503c0,0,0.004-42.493,0-42.622c0.004-5.266,4.398-9.266,9.168-9.27
	H20.4V78.877L20.4,78.877z"/>
<path d="M62.763,17.716V8.909c0.025-3.172-2.789-5.201-6.215-5.176c0,0-13.097-0.025-13.05,0c-3.412-0.025-6.273,2.003-6.268,5.176
	v8.807H24.957v61.266H75.14V17.716H62.763z M58.154,17.716H41.736V8.652h16.418V17.716z"/>
<path d="M79.646,78.877h6.732c4.624-0.009,9.127-3.424,9.115-9.376c0,0,0.013-42.492,0-42.621c0.013-5.265-4.381-9.266-9.115-9.269
	h-6.732V78.877L79.646,78.877z"/>
</svg>
