<?xml version="1.0" encoding="utf-8"?>
<!-- Generator: Adobe Illustrator 15.0.0, SVG Export Plug-In . SVG Version: 6.00 Build 0)  -->
<!DOCTYPE svg PUBLIC "-//W3C//DTD SVG 1.1//EN" "http://www.w3.org/Graphics/SVG/1.1/DTD/svg11.dtd">
<svg version="1.1" id="Layer_1" xmlns="http://www.w3.org/2000/svg" xmlns:xlink="http://www.w3.org/1999/xlink" x="0px" y="0px"
	 width="97.018px" height="100px" viewBox="0 0 97.018 100" enable-background="new 0 0 97.018 100" xml:space="preserve">
<path d="M64.057,94.494c15.241,0,27.623-12.356,27.623-27.598c0-4.406,0-16.116,0-18.516c0-2.532-1.94-3.274-3.621-1.421
	C87.06,48.054,64.554,70.715,53.3,82.991c0-9.883,0-23.444,0-26.799c0-0.665,0.284-1.182,1.083-1.182
	c11.551,0,21.992-12.44,21.992-24.391c0-8.841-1.863-15.253-5.964-23.456C69.877,6.095,69.8,5.5,68.301,5.5
	c-0.7,0-1.371,0.315-1.696,0.875c-1.065,1.852-6.828,11.811-7.196,12.468c-0.449,0.802-1.415,0.884-1.865,0
	c-0.341-0.671-6.13-10.616-7.198-12.468C50.019,5.815,49.351,5.5,48.651,5.5c-0.7,0-1.369,0.315-1.692,0.875
	c-1.071,1.852-6.857,11.796-7.197,12.468c-0.451,0.884-1.417,0.802-1.866,0c-0.368-0.658-6.13-10.616-7.197-12.468
	C30.373,5.815,29.703,5.5,29.002,5.5c-1.498,0-1.576,0.595-2.109,1.664c-4.103,8.203-5.965,14.615-5.965,23.457
	c0,11.951,10.441,24.39,21.992,24.39c0.799,0,1.083,0.517,1.083,1.182c0,5.482,0,38.309,0,38.309L64.057,94.494z"/>
<path d="M8.978,46.96c-1.683-1.854-3.643-1.111-3.643,1.42c0,2.399,0.048,14.11,0.048,18.517c0,15.241,12.356,27.599,27.598,27.599
	c1.65,0,5.568,0,7.442,0v-15.49C34.746,73.239,10.157,48.256,8.978,46.96z"/>
</svg>
