<?xml version="1.0" encoding="utf-8"?>
<!-- Generator: Adobe Illustrator 15.0.0, SVG Export Plug-In . SVG Version: 6.00 Build 0)  -->
<!DOCTYPE svg PUBLIC "-//W3C//DTD SVG 1.1//EN" "http://www.w3.org/Graphics/SVG/1.1/DTD/svg11.dtd">
<svg version="1.1" id="Layer_1" xmlns="http://www.w3.org/2000/svg" xmlns:xlink="http://www.w3.org/1999/xlink" x="0px" y="0px"
	 width="100px" height="100px" viewBox="0 0 100 100" enable-background="new 0 0 100 100" xml:space="preserve">
<path d="M97.906,55.342c-2.328-8.684-8.016-29.075-11.566-34.9c-5.146-8.439-12-8.471-12.768-8.437l0.129,7.778
	c0.133,0.004,3.226,0.169,5.998,4.71c2.051,3.368,5.668,14.893,8.691,25.591H62.646c-5.06,0-9.178,4.295-9.262,9.604
	c-1.816-0.358-3.689-0.358-5.507,0c-0.083-5.309-4.199-9.604-9.261-9.604H12.872c3.025-10.699,6.638-22.222,8.693-25.589
	c2.773-4.543,5.867-4.708,5.875-4.714l0.254-7.776c-0.777-0.038-7.622-0.002-12.769,8.439c-3.552,5.823-9.239,26.214-11.567,34.898
	c-0.676,1.354-1.096,2.874-1.096,4.508c0,2.461,0.773,6.356,1.867,11.596c0.351,1.687,0.678,3.244,0.883,4.416
	c1.392,7.908,6.372,9.091,9.217,9.091h23.489c4.834,0,8.638-3.837,9.252-9.332l0.444-7.521c1.979-1.182,4.456-1.182,6.434,0
	l0.426,7.315l0.02,0.205c0.611,5.495,4.418,9.332,9.25,9.332h23.49c2.846,0,7.826-1.183,9.217-9.095
	c0.205-1.168,0.531-2.727,0.885-4.412C98.229,66.207,99,62.311,99,59.85C99,58.216,98.582,56.695,97.906,55.342z M39.229,74.839
	c-0.112,0.854-0.555,2.332-1.51,2.332H14.229c-0.433,0-1.088,0-1.556-2.655c-0.216-1.236-0.558-2.879-0.931-4.66
	c-0.659-3.162-1.533-7.367-1.673-9.471c0.173-0.662,0.35-1.339,0.536-2.039c0.26-0.285,0.578-0.48,0.933-0.48h27.079
	c0.788,0,1.458,0.859,1.495,1.896L39.229,74.839z M88.589,74.512c-0.468,2.659-1.121,2.659-1.554,2.659H63.544
	c-0.953,0-1.398-1.478-1.509-2.33l-0.881-15.079c0.033-1.037,0.707-1.896,1.492-1.896h27.081c0.354,0,0.668,0.195,0.927,0.479
	c0.188,0.703,0.364,1.377,0.539,2.043c-0.141,2.102-1.014,6.307-1.675,9.469C89.146,71.637,88.805,73.279,88.589,74.512z"/>
</svg>
