<?xml version="1.0" encoding="utf-8"?>
<!-- Generator: Adobe Illustrator 15.0.0, SVG Export Plug-In . SVG Version: 6.00 Build 0)  -->
<!DOCTYPE svg PUBLIC "-//W3C//DTD SVG 1.1//EN" "http://www.w3.org/Graphics/SVG/1.1/DTD/svg11.dtd">
<svg version="1.1" id="Layer_1" xmlns="http://www.w3.org/2000/svg" xmlns:xlink="http://www.w3.org/1999/xlink" x="0px" y="0px"
	 width="77.273px" height="100px" viewBox="0 0 77.273 100" enable-background="new 0 0 77.273 100" xml:space="preserve">
<g>
	<path d="M41.328,36.86l7.453,7.66L15.454,81.365c-1.449,1.553-4.039,1.553-5.592,0l-4.035-4.14c-1.553-1.448-1.553-4.036,0-5.588
		L41.328,36.86z M72.59,44.726l-5.592,5.694c-1.137,1.139-2.897,1.139-4.139,0l-1.241-1.347c-0.933-0.826-1.349-2.379-0.828-3.104
		c0.929-0.621,0.62-2.484-1.141-4.141c-2.482-2.588-5.692-2.69-6.934-1.345c-0.516,0.415-2.173,2.174-2.173,2.174l-7.661-7.556
		l1.244-1.243c0,0,0.309-0.31,0.929-1.035c2.382-2.382-0.104-5.071-0.104-5.071c-6.725-6.625-16.144-6.522-16.144-6.522l-0.104-2.38
		c18.941-4.865,26.083,3.417,28.672,6.004c2.377,2.38,4.863,4.864,5.483,5.486c1.345,1.345,0,5.176,1.965,7.349
		c0.933,0.931,2.174,1.345,3.106,1.345c1.037-0.933,2.69-0.621,3.519,0.31l1.141,1.243C73.726,41.724,73.726,43.484,72.59,44.726z"
		/>
</g>
</svg>
