<?xml version="1.0" encoding="utf-8"?>
<!-- Generator: Adobe Illustrator 15.0.0, SVG Export Plug-In . SVG Version: 6.00 Build 0)  -->
<!DOCTYPE svg PUBLIC "-//W3C//DTD SVG 1.1//EN" "http://www.w3.org/Graphics/SVG/1.1/DTD/svg11.dtd">
<svg version="1.1" id="Layer_1" xmlns="http://www.w3.org/2000/svg" xmlns:xlink="http://www.w3.org/1999/xlink" x="0px" y="0px"
	 width="100px" height="94.689px" viewBox="0 0 100 94.689" enable-background="new 0 0 100 94.689" xml:space="preserve">
<path d="M94.281,47.817l-5.473-3.956c-0.22-0.159-0.502-0.247-0.796-0.247c-0.368,0-0.72,0.135-0.963,0.37l-0.198,0.19l0,0
	l-0.005,0.004l-6.908,6.648c-0.377-0.388-0.767-0.762-1.169-1.121v-9.874c0-9.312-3.41-18.075-9.602-24.676
	c-6.237-6.648-14.545-10.31-23.389-10.31c-8.846,0-17.152,3.662-23.389,10.31c-6.191,6.601-9.602,15.365-9.602,24.676v9.872
	c-4.707,4.211-7.671,10.33-7.671,17.144c0,12.702,10.297,22.998,22.998,22.998h35.331c10.321,0,19.054-6.8,21.965-16.164l0,0
	l9.387-24.128C95.022,48.964,94.792,48.185,94.281,47.817z M73.271,46.052c-2.98-1.411-6.31-2.201-9.826-2.201h-1.781
	c1.72,0,3.113-1.395,3.113-3.115c0-1.72-1.394-3.114-3.113-3.114H50.714c1.473-0.825,2.414-2.086,2.414-3.499
	c0-2.485-2.909-4.5-6.499-4.5s-6.5,2.015-6.5,4.5c0,1.413,0.943,2.673,2.416,3.499h-12.65c-1.72,0-3.114,1.394-3.114,3.114
	c0,1.72,1.395,3.115,3.114,3.115h-1.781c-3.516,0-6.846,0.79-9.827,2.2v-6.219c0-16.26,12.333-29.487,27.491-29.487
	c15.16,0,27.492,13.228,27.492,29.487V46.052z"/>
</svg>
