<?xml version="1.0" encoding="utf-8"?>
<!-- Generator: Adobe Illustrator 15.0.0, SVG Export Plug-In . SVG Version: 6.00 Build 0)  -->
<!DOCTYPE svg PUBLIC "-//W3C//DTD SVG 1.1//EN" "http://www.w3.org/Graphics/SVG/1.1/DTD/svg11.dtd">
<svg version="1.1" id="Layer_1" xmlns="http://www.w3.org/2000/svg" xmlns:xlink="http://www.w3.org/1999/xlink" x="0px" y="0px"
	 width="59px" height="109px" viewBox="0 0 59 109" enable-background="new 0 0 59 109" xml:space="preserve">
<path d="M55.516,72.591l0.004-0.001c-1.36-8.828-10.824-24.485-10.824-35.032c0-7.369-5.631-13.481-13.021-14.657v-0.208
	c0-4.644,3.778-8.421,8.423-8.421V9.089c-7.472,0-13.551,6.054-13.601,13.514c0.007-1.568-0.218-9.076-4.872-13.731
	C16.407,3.654,7.597,4.005,7.597,4.005s-0.352,8.811,4.867,14.029c5.218,5.218,14.029,4.867,14.029,4.867
	c-7.389,1.176-13.021,7.289-13.021,14.657c0,10.546-9.462,26.204-10.823,35.032l0.004,0.001C2.23,74.4,2,76.279,2,78.212
	C2,92.454,14.127,104,29.084,104s27.084-11.546,27.084-25.788C56.168,76.279,55.938,74.4,55.516,72.591z"/>
</svg>
