<svg xmlns="http://www.w3.org/2000/svg" xmlns:xlink="http://www.w3.org/1999/xlink" version="1.1" x="0px" y="0px" width="100px" height="100px" viewBox="0 0 100 100" enable-background="new 0 0 100 100" xml:space="preserve">
<g id="Layer_1">
	<path d="M93.705,9.099c-0.064-0.79-0.313-1.464-0.818-1.969c-0.003-0.004-0.009-0.006-0.012-0.01   c-0.002-0.002-0.003-0.005-0.005-0.007c-0.167-0.167-0.358-0.3-0.56-0.416c-0.017-0.01-0.029-0.026-0.046-0.035   c-0.204-0.112-0.428-0.191-0.661-0.255c-0.027-0.009-0.052-0.022-0.08-0.03c-0.169-0.041-0.354-0.054-0.536-0.072   c-0.11-0.012-0.212-0.036-0.326-0.04c-0.107-0.003-0.228,0.013-0.34,0.016c-0.207,0.007-0.412,0.01-0.632,0.039   c-0.04,0.005-0.084,0.018-0.124,0.023c-0.643,0.094-1.334,0.273-2.074,0.536c-0.001,0-0.001,0-0.003,0.001   c-0.383,0.136-0.776,0.292-1.181,0.468c-0.135,0.058-0.276,0.129-0.416,0.191c-0.262,0.121-0.522,0.237-0.793,0.372   c-10.45,5.178-26.393,20.778-26.393,20.778l-45.55-1.199l-6.892,8.392l31.765,14.084L24.543,66.749L9.86,67.048l-3.597,4.494   l11.06,6.354v5.635h5.271l5.863,10.205l4.496-3.596l0.3-14.684L50.034,61.97l14.084,31.766l8.392-6.893l-1.199-45.55   c0,0,15.609-15.949,20.782-26.398c0.116-0.236,0.217-0.463,0.324-0.693c0.078-0.172,0.167-0.349,0.238-0.517   c0.161-0.372,0.303-0.733,0.431-1.087c0.012-0.032,0.025-0.065,0.038-0.096c0.132-0.372,0.241-0.731,0.332-1.079   c0.005-0.019,0.011-0.038,0.017-0.056c0.075-0.297,0.126-0.578,0.169-0.856c0.011-0.067,0.031-0.14,0.039-0.206   c0.027-0.192,0.027-0.368,0.033-0.55c0.008-0.14,0.025-0.287,0.021-0.421C93.732,9.252,93.713,9.18,93.705,9.099z"/>
</g>
</svg>