<?xml version="1.0" encoding="utf-8"?>
<!-- Generator: Adobe Illustrator 15.0.0, SVG Export Plug-In . SVG Version: 6.00 Build 0)  -->
<!DOCTYPE svg PUBLIC "-//W3C//DTD SVG 1.1//EN" "http://www.w3.org/Graphics/SVG/1.1/DTD/svg11.dtd">
<svg version="1.1" id="Layer_1" xmlns="http://www.w3.org/2000/svg" xmlns:xlink="http://www.w3.org/1999/xlink" x="0px" y="0px"
	 width="100px" height="109px" viewBox="0 0 100 109" enable-background="new 0 0 100 109" xml:space="preserve">
<path d="M76.139,17.964C66.123,17.964,55.998,13.971,50,6c-5.997,7.97-16.125,11.963-26.139,11.963
	c-5.177,0-10.324-1.067-14.854-3.205c0.507,13.457,1.508,27.096,3.759,40.384c1.148,7.285,2.277,15.875,6.266,22.248
	c3.505,6.138,8.944,11.157,14.778,15.046c4.433,2.949,9.255,5.374,14.276,7.156c0.802,0.284,1.412,0.407,1.974,0.407
	c0.974,0,1.802-0.371,3.228-0.916C64.833,94.652,77.222,86.5,82.318,74.78c4.585-10.427,5.597-22.816,6.773-34.018
	c0.909-8.638,1.57-17.32,1.901-26.003C86.463,16.896,81.313,17.964,76.139,17.964z M79.742,39.781l-0.251,2.414
	c-0.371,3.595-0.749,7.232-1.246,10.806H50v37.278c-0.001,0-0.002,0.001-0.003,0.001c-3.836-1.467-7.522-3.369-10.972-5.664
	c-5.324-3.549-9.415-7.659-11.829-11.888l-0.094-0.163l-0.1-0.161c-2.705-4.323-3.775-11.196-4.72-17.262l-0.229-1.464l-0.008-0.053
	l-0.009-0.053c-0.032-0.188-0.061-0.383-0.093-0.572H50V19.065l0,0c7.163,5.301,16.373,8.299,26.139,8.299
	c1.591,0,3.174-0.081,4.742-0.241C80.574,31.264,80.193,35.493,79.742,39.781z"/>
</svg>
