<?xml version="1.0" encoding="utf-8"?>
<!-- Generator: Adobe Illustrator 15.0.0, SVG Export Plug-In . SVG Version: 6.00 Build 0)  -->
<!DOCTYPE svg PUBLIC "-//W3C//DTD SVG 1.1//EN" "http://www.w3.org/Graphics/SVG/1.1/DTD/svg11.dtd">
<svg version="1.1" id="Layer_1" xmlns="http://www.w3.org/2000/svg" xmlns:xlink="http://www.w3.org/1999/xlink" x="0px" y="0px"
	 width="107px" height="86px" viewBox="0 0 107 86" enable-background="new 0 0 107 86" xml:space="preserve">
<path d="M78.386,35.488c-11.406,0-20.654,9.246-20.654,20.655c0,11.407,9.248,20.654,20.654,20.654
	c11.409,0,20.656-9.247,20.656-20.654C99.042,44.734,89.795,35.488,78.386,35.488z M78.386,66.995
	c-5.992,0-10.85-4.858-10.85-10.852s4.857-10.852,10.85-10.852c5.995,0,10.853,4.858,10.853,10.852S84.381,66.995,78.386,66.995z"/>
<path d="M18.508,53.661c-6.378,0-11.55,5.171-11.55,11.55s5.171,11.55,11.55,11.55c6.379,0,11.55-5.171,11.55-11.55
	C30.058,58.831,24.887,53.661,18.508,53.661z M18.501,71.071c-3.229,0-5.848-2.619-5.848-5.848c0-3.23,2.618-5.85,5.848-5.85
	s5.848,2.619,5.848,5.85C24.349,68.452,21.731,71.071,18.501,71.071z"/>
<path d="M78.386,29.689c-1.671,0-3.307,0.159-4.894,0.457c-0.542-9.011-3.194-11.022-3.979-13.791
	c-0.273-0.965,0.549-2.872,0.549-4.662c0-0.352-0.096-4.694-3.816-4.694C62.68,7,61.8,9.696,61.8,9.696v5.843
	c0,0.508,0.442,0.921,0.987,0.921h1.295l-3.976,7.986l-6.115,4.817l-1.74-2.028L30.057,32.38V7h-2.479v25.955l-0.205,0.046
	L7.036,34.042v13.839l2.738,6.795c2.372-1.969,5.416-3.156,8.734-3.156c4.776,0,8.985,2.46,11.436,6.178h25.708
	c-0.035-0.517-0.06-1.032-0.06-1.555c0-12.569,10.227-22.796,22.796-22.796c4.776,0,9.209,1.478,12.874,3.998l2.095-3.011
	C89.099,31.406,83.943,29.689,78.386,29.689z"/>
</svg>
