<?xml version="1.0" encoding="utf-8"?>
<!-- Generator: Adobe Illustrator 15.0.0, SVG Export Plug-In . SVG Version: 6.00 Build 0)  -->
<!DOCTYPE svg PUBLIC "-//W3C//DTD SVG 1.1//EN" "http://www.w3.org/Graphics/SVG/1.1/DTD/svg11.dtd">
<svg version="1.1" id="Layer_1" xmlns="http://www.w3.org/2000/svg" xmlns:xlink="http://www.w3.org/1999/xlink" x="0px" y="0px"
	 width="77.273px" height="100px" viewBox="0 0 77.273 100" enable-background="new 0 0 77.273 100" xml:space="preserve">
<g>
	<path d="M67.69,26.611c2.939,0,4.31,1.762,4.31,3.917v18.31c0,2.057-1.567,3.721-3.624,3.916l-39.558,4.407
		c-3.23,0.393-3.624,4.601,0.197,4.601h37.503c4.305,0,4.305,6.365,0,6.365H28.23c-8.618,0-11.848-9.497-5.093-14.491l3.427-2.547
		l-12.14-26.534H8.453c-4.605,0-4.605-7.049,0-7.049h6.952c3.521,0,4.502,1.664,5.578,4.208l2.45,4.896H67.69z M25.489,78.897
		c0,3.329-2.643,6.07-6.168,6.07c-3.328,0-6.07-2.741-6.07-6.07c0-3.426,2.742-6.168,6.07-6.168
		C22.846,72.729,25.489,75.472,25.489,78.897z M29.014,38.752h9.887l-2.151-6.659H25.978L29.014,38.752z M42.328,50.209
		l-2.545-7.931H30.48l4.018,8.714L42.328,50.209z M40.272,32.094l2.056,6.659h9.693l-1.563-6.659H40.272z M54.57,48.937
		l-1.958-6.659h-9.304l2.447,7.539L54.57,48.937z M66.611,32.094H53.983l1.466,6.659h11.162V32.094z M66.907,78.897
		c0,3.329-2.644,6.07-6.069,6.07c-3.428,0-6.169-2.741-6.169-6.07c0-3.426,2.741-6.168,6.169-6.168
		C64.263,72.729,66.907,75.472,66.907,78.897z M66.611,42.278H56.232l1.567,6.168l8.812-0.881V42.278z"/>
</g>
</svg>
