<?xml version="1.0" encoding="utf-8"?>
<!-- Generator: Adobe Illustrator 15.0.0, SVG Export Plug-In . SVG Version: 6.00 Build 0)  -->
<!DOCTYPE svg PUBLIC "-//W3C//DTD SVG 1.1//EN" "http://www.w3.org/Graphics/SVG/1.1/DTD/svg11.dtd">
<svg version="1.1" id="Layer_1" xmlns="http://www.w3.org/2000/svg" xmlns:xlink="http://www.w3.org/1999/xlink" x="0px" y="0px"
	 width="100px" height="91px" viewBox="0 0 100 91" enable-background="new 0 0 100 91" xml:space="preserve">
<path d="M87.33,24.231H53.684l13.783-13.784c0.474-0.471,0.765-1.123,0.765-1.843C68.231,7.166,67.065,6,65.627,6
	c-0.721,0-1.373,0.293-1.845,0.767L50.001,20.548L36.218,6.765C35.746,6.292,35.094,6,34.375,6c-1.438,0-2.604,1.166-2.604,2.604
	c0,0.72,0.292,1.371,0.763,1.842l13.785,13.784H12.67c-3.356,0-6.077,2.682-6.077,5.991v48.786c0,3.31,2.721,5.992,6.077,5.992
	h74.66c3.356,0,6.076-2.683,6.076-5.99V30.222C93.406,26.913,90.687,24.231,87.33,24.231z M72.571,67.638
	c0,5.753-4.663,10.417-10.417,10.417H23.088c-5.754,0-10.417-4.664-10.417-10.417V41.593c0-5.753,4.664-10.417,10.417-10.417h39.066
	c5.754,0,10.417,4.665,10.417,10.417V67.638z M82.99,55.483c-2.875,0-5.209-2.331-5.209-5.209c0-2.877,2.334-5.208,5.209-5.208
	c2.876,0,5.208,2.332,5.208,5.208C88.198,53.152,85.866,55.483,82.99,55.483z M82.99,41.593c-2.875,0-5.209-2.332-5.209-5.208
	s2.334-5.209,5.209-5.209c2.876,0,5.208,2.332,5.208,5.209S85.866,41.593,82.99,41.593z"/>
</svg>
