<?xml version="1.0" encoding="utf-8"?>
<!-- Generator: Adobe Illustrator 15.0.0, SVG Export Plug-In . SVG Version: 6.00 Build 0)  -->
<!DOCTYPE svg PUBLIC "-//W3C//DTD SVG 1.1//EN" "http://www.w3.org/Graphics/SVG/1.1/DTD/svg11.dtd">
<svg version="1.1" id="Layer_1" xmlns="http://www.w3.org/2000/svg" xmlns:xlink="http://www.w3.org/1999/xlink" x="0px" y="0px"
	 width="77.273px" height="100px" viewBox="0 0 77.273 100" enable-background="new 0 0 77.273 100" xml:space="preserve">
<path d="M71.828,73.39c2.893,2.894,2.775,7.521-0.115,10.53c-3.008,2.892-7.641,2.892-10.531-0.116L24.73,46.426
	c-3.128-3.01-4.977-3.936-7.523-3.126c-2.546,0.926-6.136,0.926-9.492-1.273c-7.174-4.627-6.708-13.308-6.708-13.308l0.577-0.926
	c0,0,6.48,4.167,7.291,4.63c1.043,0.81,4.627,2.43,7.868-2.546c3.356-4.977,0.582-8.101-0.345-8.68
	c-0.81-0.463-7.29-4.744-7.29-4.744l0.577-0.927c0,0,7.523-3.817,14.581,0.347c0,0.232,1.737,1.273,2.43,1.853
	c4.516,4.05,4.516,8.564,3.706,12.267c-0.698,3.356,0,4.514,2.659,7.407L71.828,73.39z M69.166,75.82
	c-1.504-1.507-3.934-1.507-5.555,0c-1.387,1.503-1.387,4.05,0,5.438c1.621,1.506,4.051,1.736,5.555,0.116
	C70.67,79.986,70.67,77.323,69.166,75.82z"/>
</svg>
