<?xml version="1.0" encoding="utf-8"?>
<!-- Generator: Adobe Illustrator 15.0.0, SVG Export Plug-In . SVG Version: 6.00 Build 0)  -->
<!DOCTYPE svg PUBLIC "-//W3C//DTD SVG 1.1//EN" "http://www.w3.org/Graphics/SVG/1.1/DTD/svg11.dtd">
<svg version="1.1" id="Layer_1" xmlns="http://www.w3.org/2000/svg" xmlns:xlink="http://www.w3.org/1999/xlink" x="0px" y="0px"
	 width="99.083px" height="100px" viewBox="0 0 99.083 100" enable-background="new 0 0 99.083 100" xml:space="preserve">
<path d="M49.541,16.919C31.45,16.907,16.78,31.723,16.764,49.983C16.78,68.273,31.45,83.087,49.541,83.081
	c18.098,0.006,32.766-14.808,32.778-33.098C82.307,31.723,67.638,16.907,49.541,16.919z M49.541,75.46
	c-13.92,0-25.206-11.4-25.191-25.478c-0.015-14.048,11.271-25.447,25.191-25.442c13.927-0.005,25.213,11.395,25.229,25.442
	C74.754,64.06,63.466,75.46,49.541,75.46z"/>
<path d="M46.141,61.682l7.409-0.033v-5.727c-0.018-1.556,0.706-3.025,2.646-4.294c1.944-1.278,7.363-3.86,7.372-10.664
	c-0.009-6.778-5.7-11.446-10.486-12.452c-4.78-0.975-9.962-0.323-13.632,3.722c-3.301,3.591-3.995,6.446-4.008,12.739h7.407v-1.466
	c-0.015-3.349,0.374-6.89,5.153-7.873c2.629-0.515,5.083,0.305,6.548,1.718c1.652,1.637,1.665,5.303-1.001,7.121L49.398,47.3
	c-2.418,1.567-3.251,3.297-3.257,5.831L46.141,61.682L46.141,61.682z"/>
<polygon points="46.106,72.168 46.106,64.583 53.584,64.583 53.584,72.168 "/>
</svg>
